<svg xmlns="http://www.w3.org/2000/svg" xmlns:svg="http://www.w3.org/2000/svg" xmlns:xlink="http://www.w3.org/1999/xlink" id="svg12303" width="24" height="24" version="1.1"><defs id="defs12305"><linearGradient id="linearGradient4011-2"><stop style="stop-color:#fff;stop-opacity:1" id="stop4013-7" offset="0"/><stop style="stop-color:#fff;stop-opacity:.23529412" id="stop4015-9" offset=".508"/><stop style="stop-color:#fff;stop-opacity:.15686275" id="stop4017-5" offset=".835"/><stop style="stop-color:#fff;stop-opacity:.39215687" id="stop4019-6" offset="1"/></linearGradient><linearGradient id="linearGradient8838"><stop style="stop-color:#000;stop-opacity:1" id="stop8840" offset="0"/><stop style="stop-color:#000;stop-opacity:0" id="stop8842" offset="1"/></linearGradient><radialGradient id="radialGradient12301" cx="62.625" cy="4.625" r="10.625" fx="62.625" fy="4.625" gradientTransform="matrix(1.0352941,0,0,0.2823525,-52.83529,19.69412)" gradientUnits="userSpaceOnUse" xlink:href="#linearGradient8838"/><clipPath id="clipPath3865-7-7-8-6" clipPathUnits="userSpaceOnUse"><path style="opacity:.2;fill:#000;fill-opacity:1;stroke:none" id="path3867-9-4-4-4" d="m 32,24 a 8,8 0 1 1 -16,0 8,8 0 1 1 16,0 z"/></clipPath><linearGradient id="linearGradient3993-0-6-0-8-5" x1="71.204" x2="71.204" y1="6.238" y2="44.341" gradientTransform="matrix(0.45945943,0,0,-0.45945943,-20.958642,23.650623)" gradientUnits="userSpaceOnUse" xlink:href="#linearGradient4011-2"/><linearGradient id="linearGradient3111-7" x1="71.204" x2="71.204" y1="7.618" y2="43.283" gradientTransform="matrix(0.51351346,0,0,0.51351346,-24.836127,-1.0212835)" gradientUnits="userSpaceOnUse" xlink:href="#linearGradient4011-2"/><linearGradient id="linearGradient3907-7"><stop id="stop3909-5" offset="0" style="stop-color:#fafafa;stop-opacity:1"/><stop id="stop3911-3" offset="1" style="stop-color:#d4d4d4;stop-opacity:1"/></linearGradient><linearGradient id="linearGradient3932-9" x1="6.657" x2="39.442" y1="23" y2="23" gradientTransform="matrix(0,0.71428566,-0.71428566,0,28.428571,-4.4285706)" gradientUnits="userSpaceOnUse" xlink:href="#linearGradient3907-7"/><linearGradient id="linearGradient4804"><stop style="stop-color:#206b00;stop-opacity:1" id="stop4806" offset="0"/><stop style="stop-color:#206b00;stop-opacity:0" id="stop4809" offset="1"/></linearGradient><linearGradient id="linearGradient4309" x1="203.181" x2="203.181" y1="15.25" y2="47.25" gradientTransform="matrix(0.5,0,0,-0.5,-87.590631,27.624997)" gradientUnits="userSpaceOnUse" xlink:href="#linearGradient5239"/><linearGradient id="linearGradient5239"><stop id="stop5241" offset="0" style="stop-color:#9bdb4d;stop-opacity:1"/><stop id="stop5243" offset="1" style="stop-color:#68b723;stop-opacity:1"/></linearGradient><clipPath id="clipPath3865-7-7-8-6-5" clipPathUnits="userSpaceOnUse"><path style="opacity:.2;fill:#000;fill-opacity:1;stroke:none" id="path3867-9-4-4-4-3" d="m 32,24 a 8,8 0 1 1 -16,0 8,8 0 1 1 16,0 z"/></clipPath><linearGradient id="linearGradient932" x1="16" x2="32" y1="24" y2="24" gradientUnits="userSpaceOnUse" xlink:href="#linearGradient4804"/></defs><metadata id="metadata12308"/><path id="path8836" d="m 23,21 c 0,1.65685 -4.92486,3 -11,3 -6.07514,0 -11,-1.34315 -11,-3 0,-1.65685 4.92486,-3 11,-3 6.07514,0 11,1.34315 11,3 l 0,0 z" style="display:inline;overflow:visible;visibility:visible;opacity:.3;fill:url(#radialGradient12301);fill-opacity:1;fill-rule:evenodd;stroke:none;stroke-width:.99999988;marker:none"/><path id="path3902-8" d="M 12.000352,2.0000011 C 6.477331,2.0000011 2,6.4774836 2,11.999875 2,17.522772 6.4773788,22 12.000352,22 17.523126,22 22,17.522772 22,11.999875 22,6.4774836 17.523126,2.0000011 12.000352,2.0000011 Z" style="fill:url(#linearGradient3932-9);fill-opacity:1;fill-rule:nonzero;stroke:none;stroke-width:1"/><path id="path8655-9" d="M 21.5,11.999664 C 21.5,17.246538 17.246392,21.5 12.00012,21.5 6.7533685,21.5 2.5,17.24649 2.5,11.999664 c 0,-5.2466314 4.2533685,-9.4996625 9.50012,-9.4996625 5.246272,0 9.49988,4.2530311 9.49988,9.4996625 z" style="color:#000;display:inline;overflow:visible;visibility:visible;opacity:1;fill:none;stroke:url(#linearGradient3111-7);stroke-width:.99999994;stroke-linecap:round;stroke-linejoin:round;stroke-miterlimit:4;stroke-dasharray:none;stroke-dashoffset:0;stroke-opacity:1;marker:none;enable-background:accumulate"/><path id="path8655-1-6-9-4-8-2" d="M 20.5,12.000301 C 20.5,7.3057306 16.69414,3.4999999 12.000108,3.4999999 7.3056461,3.4999999 3.5,7.3057728 3.5,12.000301 3.5,16.694655 7.3056461,20.5 12.000108,20.5 16.69414,20.5 20.5,16.694655 20.5,12.000301 Z" style="color:#000;display:inline;overflow:visible;visibility:visible;opacity:.5;fill:none;stroke:url(#linearGradient3993-0-6-0-8-5);stroke-width:1;stroke-linecap:round;stroke-linejoin:round;stroke-miterlimit:4;stroke-dasharray:none;stroke-dashoffset:0;stroke-opacity:1;marker:none;enable-background:accumulate"/><path id="path2555-6-6" d="M 12.000001,1.4999995 C 6.206464,1.4999995 1.5,6.206461 1.5,11.999999 1.5,17.793537 6.206464,22.500002 12.000001,22.5 17.793537,22.5 22.500005,17.793537 22.5,11.999999 22.5,6.206461 17.793537,1.4999995 12.000001,1.4999995 Z" style="color:#000;display:inline;overflow:visible;visibility:visible;opacity:.5;fill:none;stroke:#555761;stroke-width:1;stroke-linecap:round;stroke-linejoin:round;stroke-miterlimit:4;stroke-dasharray:none;stroke-dashoffset:0;stroke-opacity:1;marker:none;enable-background:accumulate"/><path id="path3824-3-2" d="M 12.000285,4.0000015 C 7.5818635,4.0000015 4,7.5819865 4,11.9999 4,16.418218 7.5819015,20 12.000285,20 16.418501,20 20,16.418218 20,11.9999 20,7.5819865 16.418501,4.0000015 12.000285,4.0000015 Z" style="opacity:1;vector-effect:none;fill:url(#linearGradient4309);fill-opacity:1;fill-rule:nonzero;stroke:none;stroke-width:1;stroke-linecap:butt;stroke-linejoin:miter;stroke-miterlimit:4;stroke-dasharray:none;stroke-dashoffset:0;stroke-opacity:1;marker:none"/><g style="opacity:1;vector-effect:none;fill:none;fill-opacity:1;stroke:none;stroke-width:1.46428573;stroke-linecap:butt;stroke-linejoin:miter;stroke-miterlimit:4;stroke-dasharray:none;stroke-dashoffset:0;stroke-opacity:1" id="g854-6-8" transform="matrix(0.6829268,0,0,0.6829268,-630.63412,191.86584)"><path style="color:#000;overflow:visible;vector-effect:none;fill:none;fill-opacity:1;stroke:none;stroke-width:1.46428573;stroke-linecap:butt;stroke-linejoin:miter;stroke-miterlimit:4;stroke-dasharray:none;stroke-dashoffset:0;stroke-opacity:1;marker:none" id="path852-1-60" d="m 941,-269 a 3,3 0 0 0 -3,3 c 0,1.243 0.745,2.304 1.822,2.759 L 938,-257 h 6 l -1.821,-6.241 A 2.984,2.984 0 0 0 944,-266 a 3,3 0 0 0 -3,-3 z" overflow="visible"/></g><path style="opacity:.5;vector-effect:none;fill:none;fill-opacity:1;stroke:#555761;stroke-width:2;stroke-linecap:butt;stroke-linejoin:miter;stroke-miterlimit:4;stroke-dasharray:none;stroke-dashoffset:0;stroke-opacity:1" id="path3859-6-7-0-9" d="m 32,24 a 8,8 0 1 1 -16,0 8,8 0 1 1 16,0 z" clip-path="url(#clipPath3865-7-7-8-6)" transform="translate(-12,-12)"/><path id="path4299" d="m 15.340936,10.076171 a 1,1 0 0 0 -0.6875,0.30274 l -3.79297,3.792969 -1.4921903,-1.49219 c -0.942,-0.982 -2.39606,0.47206 -1.41406,1.41406 L 10.860466,17 l 5.20703,-5.20703 c 0.654,-0.636 0.18544,-1.742799 -0.72656,-1.716799 z" style="color:#000;clip-rule:nonzero;display:inline;overflow:visible;visibility:visible;opacity:.3;isolation:auto;mix-blend-mode:normal;color-interpolation:sRGB;color-interpolation-filters:linearRGB;solid-color:#000;solid-opacity:1;fill:#fff;fill-opacity:1;fill-rule:nonzero;stroke:none;stroke-width:1;stroke-linecap:butt;stroke-linejoin:miter;stroke-miterlimit:4;stroke-dasharray:none;stroke-dashoffset:0;stroke-opacity:1;marker:none;color-rendering:auto;image-rendering:auto;shape-rendering:auto;text-rendering:auto;enable-background:accumulate"/><path style="color:#000;clip-rule:nonzero;display:inline;overflow:visible;visibility:visible;opacity:1;isolation:auto;mix-blend-mode:normal;color-interpolation:sRGB;color-interpolation-filters:linearRGB;solid-color:#000;solid-opacity:1;fill:#206b00;fill-opacity:1;fill-rule:nonzero;stroke:none;stroke-width:1.64631891;stroke-linecap:butt;stroke-linejoin:miter;stroke-miterlimit:4;stroke-dasharray:none;stroke-dashoffset:0;stroke-opacity:1;marker:none;color-rendering:auto;image-rendering:auto;shape-rendering:auto;text-rendering:auto;enable-background:accumulate" id="rect4140" d="m 15.340936,9.0761705 a 1,1 0 0 0 -0.6875,0.30274 L 10.860466,13.17188 9.3682757,11.67969 c -0.942,-0.982 -2.39606,0.47206 -1.41406,1.41406 L 10.860466,16 l 5.20703,-5.20703 c 0.654,-0.636 0.18544,-1.7427995 -0.72656,-1.7167995 z"/><path style="opacity:.15;vector-effect:none;fill:none;fill-opacity:1;stroke:url(#linearGradient932);stroke-width:2.28571439;stroke-linecap:butt;stroke-linejoin:miter;stroke-miterlimit:4;stroke-dasharray:none;stroke-dashoffset:0;stroke-opacity:1" id="path3859-6-7-0-9-5" d="m 32,24 a 8,8 0 1 1 -16,0 8,8 0 1 1 16,0 z" clip-path="url(#clipPath3865-7-7-8-6-5)" transform="matrix(0,0.875,-0.875,0,33,-9)"/></svg>