<svg xmlns="http://www.w3.org/2000/svg" xmlns:svg="http://www.w3.org/2000/svg" xmlns:xlink="http://www.w3.org/1999/xlink" id="svg3658" width="32" height="32" version="1.1"><defs id="defs3660"><linearGradient id="linearGradient4011"><stop style="stop-color:#fff;stop-opacity:1" id="stop4013" offset="0"/><stop style="stop-color:#fff;stop-opacity:.23529412" id="stop4015" offset=".508"/><stop style="stop-color:#fff;stop-opacity:.15686275" id="stop4017" offset=".835"/><stop style="stop-color:#fff;stop-opacity:.39215687" id="stop4019" offset="1"/></linearGradient><linearGradient id="linearGradient3820-7-2-2"><stop style="stop-color:#3d3d3d;stop-opacity:1" id="stop3822-2-6-36" offset="0"/><stop style="stop-color:#686868;stop-opacity:.49803922" id="stop3864-8-7-6" offset=".5"/><stop style="stop-color:#686868;stop-opacity:0" id="stop3824-1-2-4" offset="1"/></linearGradient><radialGradient id="radialGradient4048" cx="99.157" cy="186.171" r="62.769" fx="99.157" fy="186.171" gradientTransform="matrix(0.17524541,0,0,0.05575992,-1.3768101,18.11895)" gradientUnits="userSpaceOnUse" xlink:href="#linearGradient3820-7-2-2"/><linearGradient id="linearGradient3932-9" x1="6.657" x2="39.442" y1="23" y2="23" gradientTransform="rotate(90,23.000001,16)" gradientUnits="userSpaceOnUse" xlink:href="#linearGradient3907-3"/><linearGradient id="linearGradient3907-3"><stop id="stop3909-6" offset="0" style="stop-color:#fafafa;stop-opacity:1"/><stop id="stop3911-7" offset="1" style="stop-color:#d4d4d4;stop-opacity:1"/></linearGradient><linearGradient id="linearGradient3111-7" x1="71.204" x2="71.204" y1="7.618" y2="43.283" gradientTransform="matrix(0.72972969,0,0,0.7297297,-36.346079,-2.5039306)" gradientUnits="userSpaceOnUse" xlink:href="#linearGradient4011"/><linearGradient id="linearGradient3993-0-6-0-8-5" x1="71.204" x2="71.204" y1="6.238" y2="44.341" gradientTransform="matrix(0.62162159,0,0,-0.6216216,-28.591103,31.762608)" gradientUnits="userSpaceOnUse" xlink:href="#linearGradient4011"/><clipPath id="clipPath3865-7-7-8-6" clipPathUnits="userSpaceOnUse"><path style="opacity:.2;fill:#000;fill-opacity:1;stroke:none" id="path3867-9-4-4-4" d="m 32,24 a 8,8 0 1 1 -16,0 8,8 0 1 1 16,0 z"/></clipPath><linearGradient id="linearGradient4804"><stop id="stop4806" offset="0" style="stop-color:#206b00;stop-opacity:1"/><stop id="stop4809" offset="1" style="stop-color:#206b00;stop-opacity:0"/></linearGradient><linearGradient id="linearGradient4260" x1="34.57" x2="34.57" y1="10.926" y2="55.547" gradientTransform="matrix(0.49993019,0,0,-0.5,0.0027054,32.500003)" gradientUnits="userSpaceOnUse" xlink:href="#linearGradient5239"/><linearGradient id="linearGradient5239"><stop style="stop-color:#9bdb4d;stop-opacity:1" id="stop5241" offset="0"/><stop style="stop-color:#68b723;stop-opacity:1" id="stop5243" offset="1"/></linearGradient><clipPath id="clipPath3865-7-7-8-6-5" clipPathUnits="userSpaceOnUse"><path style="opacity:.2;fill:#000;fill-opacity:1;stroke:none" id="path3867-9-4-4-4-3" d="m 32,24 a 8,8 0 1 1 -16,0 8,8 0 1 1 16,0 z"/></clipPath><linearGradient id="linearGradient934" x1="16" x2="32" y1="24" y2="24" gradientUnits="userSpaceOnUse" xlink:href="#linearGradient4804"/></defs><metadata id="metadata3663"/><path style="fill:url(#radialGradient4048);fill-opacity:1;stroke:none" id="path3818-0-2" d="m 27.000001,28.499804 a 11,3.4999999 0 1 1 -21.9999997,0 11,3.4999999 0 1 1 21.9999997,0 z"/><path id="path3902-8" d="M 16.000494,2.0000008 C 8.2682641,2.0000008 2,8.2684763 2,15.999823 2,23.731879 8.2683314,30 16.000494,30 23.732376,30 30,23.731879 30,15.999823 30,8.2684763 23.732376,2.0000008 16.000494,2.0000008 Z" style="fill:url(#linearGradient3932-9);fill-opacity:1;fill-rule:nonzero;stroke:none;stroke-width:1"/><path id="path8655-9" d="M 29.5,15.999522 C 29.5,23.455607 23.455399,29.5 16.000171,29.5 8.5442601,29.5 2.5,23.455538 2.5,15.999522 2.5,8.5437821 8.5442601,2.5000009 16.000171,2.5000009 23.455399,2.5000009 29.5,8.5437821 29.5,15.999522 Z" style="color:#000;display:inline;overflow:visible;visibility:visible;opacity:1;fill:none;stroke:url(#linearGradient3111-7);stroke-width:1;stroke-linecap:round;stroke-linejoin:round;stroke-miterlimit:4;stroke-dasharray:none;stroke-dashoffset:0;stroke-opacity:1;marker:none;enable-background:accumulate"/><path id="path8655-1-6-9-4-8-2" d="M 27.5,16.000408 C 27.5,9.64893 22.350897,4.5000002 16.000147,4.5000002 9.6488154,4.5000002 4.5,9.6489871 4.5,16.000408 4.5,22.351594 9.6488154,27.5 16.000147,27.5 22.350897,27.5 27.5,22.351594 27.5,16.000408 Z" style="color:#000;display:inline;overflow:visible;visibility:visible;opacity:.5;fill:none;stroke:url(#linearGradient3993-0-6-0-8-5);stroke-width:.99999994;stroke-linecap:round;stroke-linejoin:round;stroke-miterlimit:4;stroke-dasharray:none;stroke-dashoffset:0;stroke-opacity:1;marker:none;enable-background:accumulate"/><path id="path2555-6-6" d="M 16.000002,1.4999984 C 7.999402,1.4999984 1.5,7.9993979 1.5,15.999999 1.5,24.000599 7.999402,30.500002 16.000002,30.5 24.000598,30.5 30.500008,24.000599 30.5,15.999999 30.5,7.9993979 24.000598,1.4999984 16.000002,1.4999984 Z" style="color:#000;display:inline;overflow:visible;visibility:visible;opacity:.5;fill:none;stroke:#555761;stroke-width:1;stroke-linecap:round;stroke-linejoin:round;stroke-miterlimit:4;stroke-dasharray:none;stroke-dashoffset:0;stroke-opacity:1;marker:none;enable-background:accumulate"/><path id="path3824-3-2" d="M 16.000393,5.0000022 C 9.9250614,5.0000022 5,9.9252322 5,15.999864 5,22.07505 9.9251159,27 16.000393,27 22.075439,27 27,22.07505 27,15.999864 27,9.9252322 22.075439,5.0000022 16.000393,5.0000022 Z" style="opacity:1;vector-effect:none;fill:url(#linearGradient4260);fill-opacity:1;fill-rule:nonzero;stroke:none;stroke-width:1;stroke-linecap:butt;stroke-linejoin:miter;stroke-miterlimit:4;stroke-dasharray:none;stroke-dashoffset:0;stroke-opacity:1;marker:none"/><path style="opacity:.5;vector-effect:none;fill:none;fill-opacity:1;stroke:#555761;stroke-width:1.45454538;stroke-linecap:butt;stroke-linejoin:miter;stroke-miterlimit:4;stroke-dasharray:none;stroke-dashoffset:0;stroke-opacity:1" id="path3859-6-7-0-9" d="m 32,24 a 8,8 0 1 1 -16,0 8,8 0 1 1 16,0 z" clip-path="url(#clipPath3865-7-7-8-6)" transform="matrix(1.375,0,0,1.3750001,-17,-17.000003)"/><path style="color:#000;display:inline;overflow:visible;visibility:visible;opacity:.3;fill:#fff;fill-opacity:1;fill-rule:nonzero;stroke:none;stroke-width:1.64631891;marker:none;enable-background:accumulate" id="path2922-6-6-0-9-4-2-7" d="M 19.489464,13 20.999529,14.348322 15.925696,21 l -3.926167,-3.355799 1.298655,-1.707871 2.2953,1.977529 z"/><path style="color:#000;display:inline;overflow:visible;visibility:visible;opacity:1;fill:#206b00;fill-opacity:1;fill-rule:nonzero;stroke:none;stroke-width:1.64631891;marker:none;enable-background:accumulate" id="path2922-6-6-0-9-4-2" d="m 19.489464,11.999893 1.510065,1.348321 -5.073833,6.651679 -3.926167,-3.355799 1.298655,-1.707871 2.2953,1.977529 z"/><path style="opacity:.15;vector-effect:none;fill:none;fill-opacity:1;stroke:url(#linearGradient934);stroke-width:1.5999999;stroke-linecap:butt;stroke-linejoin:miter;stroke-miterlimit:4;stroke-dasharray:none;stroke-dashoffset:0;stroke-opacity:1" id="path3859-6-7-0-9-5" d="m 32,24 a 8,8 0 1 1 -16,0 8,8 0 1 1 16,0 z" clip-path="url(#clipPath3865-7-7-8-6-5)" transform="matrix(0,1.25,1.2500001,0,-14.000002,-14.000001)"/></svg>